<?xml version="1.0" encoding="UTF-8"?>
<svg id="Layer_1" data-name="Layer 1" xmlns="http://www.w3.org/2000/svg" viewBox="0 0 1426.92 1395.61">
  <defs>
    <style>
      .cls-1 {
        fill: #fff;
      }
    </style>
  </defs>
  <path class="cls-1" d="M904.5,811.8c-15.69,5.89-34.84,5.91-43.31-10.01-6.01-11.29-11.58-25.86-18.82-36.17-21.98-31.3-58.19-43.14-95.01-44.42-103.77-3.62-177.03-78.06-193.34-178.59-35.27,187.92,144.3,305.9,276.62,396.83,32.98,22.66,61.61,47.5,84.35,80.17,38.94,55.93,42.96,127.5,8.67,186.06l28.79,5.92c27.76,5.71,28.32,32.23,24.57,52.86,31.7,6.58,33.49,34.83,46.21,55.82s51.98,34.79,39.72,75.3l363.95-.78-194.77-227.64-109.7-127.8-132.89-151.2c104.23-49.17,186.73-126.97,234.01-230.68,82.03-179.96,37.82-393-104.95-528.74C1023.91,39.45,900.72-.19,770.63,0L.09,1.12l-.09,1393.81,149.91.67c-3.23-36.27,13.51-63.53,47.36-71.18-7.35-30.35,10.71-51.54,37.56-58.54-.36-12.82-1.93-30.37,8.11-38.71,11.14-9.27,26.1-11.96,41.35-17.29l-17.01-16.74c-8.52-8.38-10.88-25.14-5.21-37.07,3.68-7.74,16.5-15.31,26.14-20.71,1.5-21.62,4.51-45.65,11.52-66.97-81.82-64.54-121.61-174.99-138.47-274.77-34.54-204.38,8.9-412.17,205.33-515.6,87.72-46.19,184.27-66.77,284.17-52.15,14.44-55.35,87.14-119.6,144.99-107.26-17.33,50.8-39.29,112.05-11.71,159.91,30.62,53.14,56.65,105.56,82.41,161.63l129.71,282.37c25.31,55.1-56.73,76.16-91.66,89.27ZM306.02,510.37c70.65-134.13,194.21-208.05,338.44-235.55-87.48-5.44-171.7,16.01-245.94,58.94-89.89,51.98-151.36,134.52-173.8,235.78-26.85,121.18-9.06,279.5,58.08,385.67-45.52-154.85-47.54-301.7,23.22-444.84ZM824.59,478.19l-34.39-73.13c-3.69-7.84-19.74-11.7-29.95-12.95-8.85,18.27-11.21,48.86,9.17,61.55,16.58,10.33,37.02,16.36,55.17,24.53ZM917.76,690.47c6.35-4.33,10.76-9.69,11.26-12.78s-4.69-11.27-7.62-10.24c-4.34,1.53-8.87,7.14-10.15,10.91-1.08,3.19,3.8,13.96,6.51,12.11ZM817.17,1011.25c-21.85-20.33-44.95-37.16-69.56-54.25-49.52-34.39-94.93-70.22-138.25-112.57-47.71-46.65-79.41-101.26-102.95-161.34,3.6,75.57,36.15,139.07,79.3,195.62,109.7,143.73,264.61,154.02,250.2,328.01,43.74-67.36,40.02-140.78-18.75-195.47Z"/>
  <path d="M904.5,811.8c34.93-13.11,116.97-34.17,91.66-89.27l-129.71-282.37c-25.76-56.07-51.79-108.49-82.41-161.63-27.57-47.86-5.61-109.11,11.71-159.91-57.85-12.35-130.55,51.91-144.99,107.26-99.9-14.62-196.46,5.96-284.17,52.15-196.43,103.43-239.87,311.22-205.33,515.6,16.86,99.77,56.65,210.22,138.47,274.77-7.01,21.32-10.03,45.34-11.52,66.97-9.64,5.4-22.47,12.97-26.14,20.71-5.67,11.93-3.3,28.69,5.21,37.07l17.01,16.74c-15.25,5.33-30.21,8.03-41.35,17.29-10.03,8.34-8.47,25.89-8.11,38.71-26.85,7-44.9,28.19-37.56,58.54-33.85,7.65-50.59,34.91-47.36,71.18l-149.91-.67L.09,1.12,770.63,0c130.09-.19,253.28,39.45,348,128.72,142.77,135.74,186.98,348.78,104.95,528.74-47.28,103.71-129.78,181.51-234.01,230.68l132.89,151.2,109.7,127.8,194.77,227.64-363.95.78c12.25-40.51-26.73-53.86-39.72-75.3s-14.51-49.24-46.21-55.82c3.74-20.63,3.19-47.15-24.57-52.86l-28.79-5.92c34.29-58.56,30.26-130.13-8.67-186.06-22.75-32.67-51.37-57.5-84.35-80.17-132.32-90.92-311.89-208.9-276.62-396.83,16.31,100.53,89.57,174.98,193.34,178.59,36.83,1.28,73.03,13.12,95.01,44.42,7.24,10.31,12.82,24.88,18.82,36.17,8.47,15.92,27.62,15.9,43.31,10.01Z"/>
  <path d="M306.02,510.37c-70.76,143.14-68.73,290-23.22,444.84-67.14-106.17-84.93-264.49-58.08-385.67,22.44-101.27,83.91-183.8,173.8-235.78,74.23-42.93,158.46-64.39,245.94-58.94-144.22,27.5-267.78,101.42-338.44,235.55Z"/>
  <path d="M817.17,1011.25c58.77,54.69,62.5,128.11,18.75,195.47,14.41-173.99-140.49-184.28-250.2-328.01-43.16-56.54-75.7-120.05-79.3-195.62,23.54,60.08,55.24,114.7,102.95,161.34,43.32,42.35,88.73,78.18,138.25,112.57,24.61,17.09,47.71,33.92,69.56,54.25Z"/>
  <path d="M824.59,478.19c-18.16-8.16-38.59-14.2-55.17-24.53-20.37-12.69-18.01-43.29-9.17-61.55,10.21,1.25,26.26,5.11,29.95,12.95l34.39,73.13Z"/>
  <path d="M917.76,690.47c-2.71,1.84-7.59-8.92-6.51-12.11,1.28-3.77,5.81-9.38,10.15-10.91,2.93-1.03,8.13,7.17,7.62,10.24s-4.92,8.46-11.26,12.78Z"/>
</svg>