<?xml version="1.0" encoding="UTF-8"?>
<svg id="Layer_1" data-name="Layer 1" xmlns="http://www.w3.org/2000/svg" viewBox="0 0 1450.39 1324.1">
  <defs>
    <style>
      .cls-1 {
        fill: #fff;
      }
    </style>
  </defs>
  <path d="M600.02,949.06l-207.16,49.59c-37.83,60.28-85.65,105.06-153.14,127.39l94.07,196.51-92.08,1.56-.87-52.01-92.83-154.45,85.89-158.71c-58.39-118.87-34.74-249.75,94.13-301.19-37.55,154.54,85.55,104.67,14.39,274.85,41.67,1.69,80.89-25.19,95.06-65.76l18.97,55.57c39.36-11.57,56.51-40.47,80.14-81.45,12.96,13.43,19.44,27.07,29.96,53.71,9.25-4.96,27.15-17.25,38.01-27.03l-22.23-145.14c-41.46-13.39-186.57-31.09-186.08-78.02l.8-76.27-68.46-41.3c-26.22-15.82-18.16-46.94-1.49-65.24l22.62-24.85-127.83-85.94c-7.87-5.29-7.99-28.24-1.15-36.31,5.92-6.97,24.7-8.32,33.21-2.39l129.73,90.4c30.33-30.01,56.01-58.76,86.97-86.03,24.16-21.28,60.68-40.08,76.54-66.43-8.24-27.96-15.71-54.15-5.96-80.4,8.22-22.15,32.78-43.85,61.34-46.23,47.48-3.94,86.85,29.19,100.61,73.17l-64.82,8.13,59.48,52.73c-10.11,33.52-43.58,45.28-77.39,41.77l-13.27-1.38c-3.68-.38-3.66,15.77-1.13,19.47l60.81,88.92-66.96,138.1c56.8,80.1,82.05,13.75,136.09,59.4,70.82,59.83,152.45,94.52,245.97,99.48l-39.87,93.03,127.28,37.65,25.68,65.37,349.44,238.61c4.77,3.25,7.29,16.04,5.14,19.47-2.16,3.45-11.48,6.03-17.75,1.85L474.92,520.18c25.02-29.18,37.44-81.98.52-96.53-37.68,2.63-74.11,57.88-73.29,96.22,13.12,9.19,34.68,10.51,52.37,8.91l537.54,361.06-103.26-7.28c-10.17,3.92-26.17,20.38-33.71,30.73,35.67,124.19,68.22,244.56,115.83,363.68,5.83,14.59,18.23,27.37,28.33,46.06l-93.04.87c8.39-27.87-44.12-163.57-52.63-180.33l-106.22-209.44c-46.92.08-96.34,2.74-147.35,14.95Z"/>
  <path d="M1083.62,704.55c-22.99-109.95-68.72-51.41-91.1-161.44-1.59-3.46-5.22-10.12-6.81-13.18-7.48-14.4-37.39,28.16,17.34,94.55,5.64,6.85,4.83,24.17.6,30.92-4.25,6.79-22.84,13.46-32.52,12.75-88.09-6.49-162.69-44.67-229.36-103.74,93.92-153.39,296.71-319.79,479.32-187.62-34.13,71.04-55.03,42.19-126.52,60.45-93.43,124.49,9.18,133.35,7.92,218.75-.35,23.93,5.35,40.77,27.24,57-5.26,7.32-43.46,4.24-46.11-8.44Z"/>
  <path d="M195.01,737.69l-22.32,75.9c-43.52,11.64-104.6,6.46-139.66-30.15-56.12-58.59-36.12-148.32,25.48-194.85,30.09-22.73,47.78-60.5,35.91-97.07-9.9-30.52-33.42-51.39-56.47-76.61,44.5,3.44,85.57,19.33,118.78,45.99,57.2,45.93,62.52,121.11,15.51,177.85-11.55,13.94-28.05,36.15-27.94,53.39.16,25.62,24.19,36.05,50.71,45.54Z"/>
  <path d="M597.08,1323l-81.32.72,6.51-40.09-153.09-136.76c26.16-41.59,42.13-73.53,53.54-121.86l127.55-33.11c-9,67.88-47.39,110.27-94.99,146.34l124.53,134.69c7.83,8.47,11.29,26.4,17.27,50.06Z"/>
  <path d="M1167.22,585.92c-13.18,25.93,8.24,64.94-8.27,101.62-2.57,5.71-21.64,2.09-25.96-2.44s-5.94-12.85-6.13-22.74c-2-106.03-91.66-102.48-19.53-202.67,70.76-15.87,171.98-16.59,255.11-8.09-51.9,35.54-113.75,24.44-165.82,45.28-3.53,29.64-13.62,57.99-29.4,89.04ZM1144.38,547.04c7.78-2.67,9.29-25.69,5.53-31.99-3.23-5.41-14.14-13.51-20.24-11.98-6.9,1.72-10.74,20.73-9.45,27.71,1.29,6.99,15.49,19.24,24.16,16.27Z"/>
  <path d="M642.31,50.86c13.3,14.26,20.53,44.93,10.18,56.39l-63.9-4.82c-19.94-1.51-38.42-5.42-58,5.53-35.99,20.12-72.38,12-93.76-19.46-19.33-28.44-6.9-74.47,25.36-88.49,4.67,16.18,9.46,33.36,14.88,43.5,5.24,9.79,33.78,4.47,43.75-2.57,36.6-25.85,87.34-26.67,121.49,9.94Z"/>
  <path d="M1076.2,1078.64c-20.31-18.32-32.73-33.46-53.19-60.22l45.34-22.42-34.82-76.59c34.93,20.47,62.36,38.71,93.74,62.33-7.99,38.42-25.96,64.84-51.07,96.89Z"/>
  <path class="cls-1" d="M1144.38,547.04c-8.67,2.98-22.87-9.28-24.16-16.27-1.29-6.98,2.55-25.99,9.45-27.71,6.1-1.52,17.01,6.57,20.24,11.98,3.77,6.3,2.26,29.32-5.53,31.99Z"/>
</svg>