<?xml version="1.0" encoding="UTF-8"?>
<svg version="1.1" xmlns="http://www.w3.org/2000/svg" width="500" height="500">
<path d="M0 0 C42.49800956 -0.06875437 84.99601267 -0.12157353 127.49406689 -0.15319599 C132.51801734 -0.15694785 137.54196768 -0.16083084 142.56591797 -0.16479492 C143.56604294 -0.16558185 144.56616792 -0.16636878 145.59659971 -0.16717956 C161.76370581 -0.18021267 177.93077972 -0.20385491 194.09786676 -0.23145839 C210.70235388 -0.259571 227.30682421 -0.27618861 243.91133416 -0.28226548 C254.14678636 -0.28636981 264.38214755 -0.2993054 274.61757173 -0.3237494 C281.64839948 -0.33967897 288.67918059 -0.34438412 295.71002506 -0.34050413 C299.75880004 -0.33859376 303.80741663 -0.34140008 307.85616302 -0.35761642 C338.87753547 -0.47575764 338.87753547 -0.47575764 354 3 C355.01043806 3.22000073 356.02087612 3.44000147 357.06193352 3.66666889 C359.35270457 4.17969954 361.61122479 4.7545198 363.875 5.375 C365.06609375 5.69742676 365.06609375 5.69742676 366.28125 6.02636719 C372.7809031 7.8391776 378.88351586 10.14217671 385 13 C386.51021121 13.67884268 388.02064687 14.35718614 389.53125 15.03515625 C398.95771321 19.32203953 407.63223091 23.85732368 416 30 C417.00417969 30.72058594 418.00835937 31.44117187 419.04296875 32.18359375 C424.88549194 36.4562628 430.37399429 40.96987153 435.69140625 45.87890625 C437.81495436 47.82998345 439.98675681 49.69968282 442.1875 51.5625 C470.1699951 76.0186392 486.36435195 113.13432228 493 149 C493.226875 150.22203125 493.45375 151.4440625 493.6875 152.703125 C497.02353894 174.48004587 495.46548198 196.52980317 491 218 C490.85046875 218.73492676 490.7009375 219.46985352 490.546875 220.22705078 C483.8598472 251.85885939 464.98005925 279.94694969 443 303 C441.90945313 304.16982422 441.90945313 304.16982422 440.796875 305.36328125 C418.85923157 328.23530579 389.8525384 342.5508772 360 352 C364.03496944 356.77412433 368.17023824 361.43254742 372.4375 366 C373.0344165 366.6401001 373.63133301 367.2802002 374.24633789 367.93969727 C379.29846643 373.32272545 384.48844565 378.55815616 389.76147461 383.72460938 C392.69971503 386.62019596 395.51268376 389.55315057 398.19140625 392.69140625 C403.14424364 398.42994721 408.60922848 403.67821459 414 409 C426.03911567 420.88505021 426.03911567 420.88505021 431.45703125 427.234375 C433.99260268 430.13583902 436.74339095 432.81046173 439.5 435.5 C442.90254138 438.81975448 446.18562574 442.17089665 449.28125 445.78125 C453.59847336 450.77737227 458.29846786 455.36863998 463 460 C468.318825 465.23943955 473.51738381 470.48606029 478.37792969 476.15527344 C480.98595434 479.12129304 483.79994123 481.86752636 486.625 484.625 C489.82896066 487.75339555 492.94409318 490.8598859 495.7734375 494.3359375 C497.72141906 497.02716732 497.72141906 497.02716732 500 498 C500 498.66 500 499.32 500 500 C456.76813356 512.98207356 402.04756001 519.95111653 360.24022996 498.58991206 C296.97752898 463.57582256 244.25231413 401.01937403 194.51858349 349.2547106 C179.69601649 333.83370615 164.57864722 318.7720369 149.15460283 303.95313887 C3.33616829 163.848907 3.33616829 163.848907 -11.69260865 79.78835756 C-12.15773349 52.82815912 -7.73653109 25.76357907 0 0 Z M116 109 C116.78372482 109.78339752 117.56744965 110.56679504 118.37492371 111.37393188 C120.5642473 113.56408266 122.74699757 115.76031899 124.92578125 117.9609375 C126.3879633 119.43234884 127.8502043 120.9037016 129.3125 122.375 C130.3943457 123.46941406 130.3943457 123.46941406 131.49804688 124.5859375 C134.8177259 127.92050297 138.14686294 131.17584536 141.73046875 134.2265625 C148.43419285 139.99763046 154.51418608 146.46093448 160.72753906 152.74804688 C166.35905775 158.44039493 171.94910264 164.0799752 178.05078125 169.2734375 C183.1421136 173.78319482 187.80732953 178.77410725 192.578125 183.6171875 C196.93403106 188.01317858 201.34176936 192.23412001 206.0390625 196.26171875 C210.45475088 200.17602419 214.51182286 204.47560834 218.64453125 208.68359375 C221.90454639 211.97936774 225.1669672 215.19515435 228.69921875 218.19921875 C234.90921764 223.5410711 240.55787014 229.49102061 246.3125 235.3125 C248.63903178 237.66565331 250.96888619 240.01544408 253.30078125 242.36328125 C253.82891922 242.89971756 254.35705719 243.43615387 254.90119934 243.98884583 C259.13403174 248.24995372 261.5367837 250.24484712 267.59448242 250.29052734 C268.74385788 250.30328705 269.89323334 250.31604675 271.07743835 250.32919312 C272.32418839 250.33141876 273.57093842 250.33364441 274.85546875 250.3359375 C276.78982536 250.3459227 276.78982536 250.3459227 278.76325989 250.35610962 C281.50293306 250.36809848 284.24248017 250.37178987 286.98217773 250.37060547 C289.76271956 250.37044422 292.54259356 250.38411272 295.32299805 250.41162109 C322.64569664 250.67802931 343.82947765 248.00360807 364.5546875 228.609375 C378.17571254 214.7813435 384.31332384 196.51910534 384.2421875 177.33007812 C383.90700925 158.91203346 375.82604968 141.31712822 363.10546875 128.01953125 C350.51809856 116.40633635 334.29312993 108.63305753 317.06555176 108.75949097 C316.20117036 108.75778212 315.33678897 108.75607327 314.4462142 108.75431263 C311.56887439 108.75103565 308.69177121 108.76199176 305.81445312 108.77294922 C303.74433396 108.77351372 301.67421439 108.77319601 299.60409546 108.77206421 C293.99727474 108.77149122 288.39053988 108.78323695 282.78373909 108.79721212 C276.91942914 108.80972834 271.05511715 108.81089069 265.1907959 108.81326294 C254.09167922 108.81947508 242.99260202 108.83588233 231.89350271 108.85596192 C219.25511093 108.87832917 206.61671724 108.88931643 193.97831059 108.89935279 C167.98551852 108.92024876 141.99276147 108.9554196 116 109 Z " fill="#FFFFFF" transform="translate(0,0)"/>
<path d="M0 0 C0.66 0 1.32 0 2 0 C3.46261597 1.48262024 3.46261597 1.48262024 5.15576172 3.5246582 C8.7562878 7.75637744 12.56501832 11.69407161 16.5078125 15.60546875 C17.54057816 16.63611198 17.54057816 16.63611198 18.59420776 17.68757629 C20.76877327 19.85660616 22.94680386 22.02211678 25.125 24.1875 C26.59268149 25.65015629 28.06013134 27.11304504 29.52734375 28.57617188 C32.21878649 31.259496 34.91154009 33.94148864 37.60595703 36.62182617 C44.92089914 43.89992309 44.92089914 43.89992309 47.80859375 46.84375 C50.50278032 49.58316272 53.18983858 52.21778704 56.1875 54.625 C59 57 59 57 60.875 59.375 C62.70824804 61.63960052 64.41874698 63.29096669 66.62270546 65.1610508 C70.99217958 68.9451366 75.08607682 72.95204838 79.16171265 77.04818726 C79.94301186 77.82933761 80.72431108 78.61048797 81.52928603 79.41530955 C84.12786287 82.0145769 86.722855 84.61739294 89.31787109 87.22021484 C91.18748102 89.09174524 93.05729267 90.96307198 94.92736816 92.83413696 C98.94379903 96.85344419 102.95845254 100.87451949 106.97193527 104.89677048 C112.77632538 110.71374842 118.58398248 116.52745596 124.39252181 122.34029038 C133.820246 131.77506901 143.24609826 141.21171526 152.67041016 150.64990234 C153.23357833 151.21389833 153.7967465 151.77789431 154.37698038 152.35898109 C158.37636868 156.36427237 162.37569046 160.36963008 166.375 164.375 C170.95388981 168.96082366 175.53281413 173.54661285 180.11181641 178.13232422 C180.67611297 178.69744891 181.24040954 179.2625736 181.821806 179.84482329 C191.21974328 189.25643053 200.61963242 198.66608599 210.02092421 208.07434237 C215.81827668 213.87618076 221.6138409 219.67979468 227.40712877 225.48569174 C231.83738246 229.92534085 236.27014696 234.36247489 240.70385742 238.79867172 C242.5260967 240.622791 244.34746745 242.44777837 246.16792679 244.27367401 C248.64306843 246.75597713 251.12122569 249.23522911 253.60018921 251.7137146 C254.32818674 252.4453071 255.05618428 253.17689959 255.80624235 253.93066156 C256.46713601 254.59018088 257.12802968 255.24970019 257.80895042 255.92920494 C258.3810293 256.50220561 258.95310818 257.07520629 259.54252279 257.66557062 C260.9802921 259.10437533 260.9802921 259.10437533 263 260 C263 260.66 263 261.32 263 262 C244.34581076 262.1869855 225.691812 262.32800553 207.03687954 262.41449738 C198.374772 262.45572696 189.71324716 262.51192371 181.05151367 262.60351562 C173.50079346 262.68332119 165.95049526 262.73488148 158.39936501 262.75270796 C154.40181957 262.76312692 150.40548128 262.78756211 146.40832329 262.84584045 C142.64295492 262.90029265 138.87928634 262.91686415 135.11356163 262.90486145 C133.73444618 262.90705586 132.3552718 262.92288554 130.97649765 262.9536438 C120.56316244 263.17448273 120.56316244 263.17448273 116.67408943 260.25242615 C114.91125668 258.25089869 113.45723313 256.22874169 112 254 C110.35305515 252.31384218 108.68873879 250.64429829 107 249 C105.33140337 247.33522612 103.66495625 245.66840909 102 244 C101.41460575 243.41358294 100.8292115 242.82716587 100.22607803 242.22297859 C98.09472767 240.08769968 95.96362103 237.95217768 93.83251953 235.81665039 C85.58897904 227.55673778 77.34288576 219.29937751 69.0953083 211.04349613 C64.10954049 206.05257156 59.12472014 201.06070742 54.14208984 196.06665039 C49.31459783 191.2280936 44.48446879 186.39218203 39.65273666 181.55785942 C37.81551714 179.71879665 35.97917589 177.87885604 34.14374161 176.03801155 C31.57358609 173.4605774 29.0002979 170.88630978 26.42626953 168.31274414 C25.29760971 167.17869141 25.29760971 167.17869141 24.14614868 166.02172852 C20.37129067 162.25418758 16.54154316 158.6427065 12.43757439 155.23464108 C10.53461378 153.60030942 8.91965456 151.7973592 7.3125 149.875 C5.5831058 147.81953863 3.9809963 145.98393717 1.9253273 144.24638748 C-0.54310367 141.36633045 -0.49429276 139.8848497 -0.48101807 136.12811279 C-0.48651672 134.92780426 -0.49201538 133.72749573 -0.49768066 132.49081421 C-0.48329956 131.17739044 -0.46891846 129.86396667 -0.45410156 128.51074219 C-0.45297305 127.11115552 -0.45360702 125.71156649 -0.45587158 124.3119812 C-0.45701953 120.514611 -0.43349771 116.71774591 -0.40557575 112.92049313 C-0.38057527 108.95135494 -0.37822118 104.98220526 -0.37347412 101.01300049 C-0.36104033 93.49775372 -0.32821338 85.98273963 -0.28807616 78.46759534 C-0.24337091 69.91147092 -0.22137457 61.35533541 -0.20129442 52.79912329 C-0.15948101 35.1992836 -0.08912122 17.5996605 0 0 Z " fill="#FFFFFF" transform="translate(0,238)"/>
</svg>
