<?xml version="1.0" encoding="UTF-8"?>
<svg id="Layer_1" xmlns="http://www.w3.org/2000/svg" version="1.1" viewBox="0 0 70.44 62.92">
  <!-- Generator: Adobe Illustrator 30.2.1, SVG Export Plug-In . SVG Version: 2.1.1 Build 1)  -->
  <defs>
    <style>
      .st0 {
        fill: #fff;
      }
    </style>
  </defs>
  <path class="st0" d="M65.58,2.61c-1.5-1.1-3.16-1.97-5-2.59-.22-.07-.52.04-.62.25-.86,1.75-1.83,3.43-2.98,5.01-.62.86-1.29,1.68-1.98,2.49-.35.41-.71.82-1.07,1.22-.15.17-1.03.92-.67,1.06.24.09.8-.06,1.03-.16.54-.24,1.03-.6,1.51-.94.75-.55,1.47-1.14,2.15-1.78,1.21-1.13,2.27-2.41,3.19-3.79,1.02,2.59,1.51,5.49.51,8.13-1.25,3.3-4.61,4.91-7.85,5.63-3.74.83-7.67.74-11.27,2.18-.29.11-.57.24-.85.38-2.48-1.55-5.45-2.34-8.37-2.35-3.83-.01-7.41,1.37-10.22,3.72-1.98-.84-4.13-1.31-6.28-1.34-6.19-.09-11.91,3.67-14.82,9.05-3.08,5.69-2.5,12.63.96,18.02.82,1.28,1.88,2.43,3.01,3.45.24.22.6-.13.36-.36C2.19,45.68.22,39.31,1.54,33.51c1.23-5.37,5.39-10.05,10.67-11.71,3.17-1,6.65-.83,9.75.33-1.44,1.46-2.62,3.21-3.43,5.18-1.13,2.74-1.54,5.86-.73,8.75.73,2.6,2.56,5.07,5.33,5.65,2.87.59,5.79-.89,7.48-3.18,1.93-2.61,1.93-6.16.82-9.1-1.28-3.39-3.86-6.05-7-7.72,1.75-1.36,3.82-2.33,6.06-2.76,2.96-.56,6.14-.19,8.87,1.08.31.14.62.3.92.47-1.99,1.32-3.58,3.24-3.96,5.67-.46,2.91,1.36,6.15,4.4,6.69,2.94.53,5.36-1.93,5.81-4.69.5-3.03-1.33-5.79-3.62-7.6.76-.31,1.54-.56,2.31-.75,3.36-.82,6.87-.79,10.19-1.76,2.65-.77,5.27-2.23,6.73-4.65,1.51-2.5,1.54-5.59.84-8.36-.12-.48-.64-1.5-.81-1.97.17.48.92.71,1.33.91,1.32.66,2.67,1.24,3.92,2.03.51.32,1.02.65,1.51,1.01.46.33.86.7,1.46.66.1,0-.6-.99-.65-1.05-1.25-1.55-2.63-2.92-4.18-4.06ZM27.34,25.59c2.1,2.14,3.53,5.1,3.44,8.14-.08,2.73-1.65,5.24-4.22,6.28-2.48,1.01-5.08.08-6.49-2.17-1.4-2.25-1.59-5.07-1.04-7.61.64-2.91,2.17-5.53,4.27-7.53,1.49.73,2.87,1.69,4.04,2.89ZM45.14,26.19c.5,2.38-1.15,5.66-3.92,5.38-1.34-.14-2.48-1.11-3.12-2.26-.72-1.31-.66-2.85-.12-4.21.69-1.73,1.99-2.97,3.54-3.85,1.73,1.2,3.18,2.85,3.62,4.93Z"/>
</svg>